
<svg width="640" height="480" xmlns="http://www.w3.org/2000/svg" xmlns:svg="http://www.w3.org/2000/svg">
 <g class="layer">
  <title>Layer 1</title>
  <rect fill="#ff7f00" height="58" id="svg_3" stroke="#000000" stroke-dasharray="null" stroke-linecap="null" stroke-linejoin="null" stroke-width="5" width="152" x="44.5" y="130.5"/>
  <path d="m265.5,103.5c29,6 89,-17 88.5,-17.5c-0.5,-0.5 -30.5,-39.5 -31,-40c-0.5,-0.5 84.5,33.5 84,33c-0.5,-0.5 -10.5,111.5 -12.5,111.5c-2,0 -45,17 -45.5,16.5c-0.5,-0.5 -12.5,-50.5 -13,-51c-0.5,-0.5 -37.5,-9.5 -38,-10c-0.5,-0.5 2.5,-22.5 2,-23c-0.5,-0.5 -34.5,-19.5 -34.5,-19.5z" fill="#7f00ff" id="svg_1" stroke="#000000" stroke-dasharray="null" stroke-linecap="null" stroke-linejoin="null" stroke-width="0"/>
 </g>
</svg>

<svg width="640" height="480" xmlns="http://www.w3.org/2000/svg" xmlns:svg="http://www.w3.org/2000/svg">
 <g class="layer">
  <title>Layer 1</title>
  <ellipse cx="121.5" cy="146.5" fill="#ff0000" id="svg_1" rx="60" ry="70" stroke="#000000" stroke-width="5"/>
  <path d="m215.5,318.5c1,0 106,-109 105.5,-109.5c-0.5,-0.5 -74.5,28.5 -75,28c-0.5,-0.5 94.5,31.5 95.5,31.5c1,0 21,-56 22,-56c1,0 11,56 10.5,55.5c-0.5,-0.5 -43.5,-36.5 -44,-37c-0.5,-0.5 69.5,-10.5 69,-11" fill="#00ffff" id="svg_2" stroke="#000000" stroke-width="5"/>
  <rect fill="#7f0000" height="54" id="svg_3" stroke="#000000" stroke-width="5" width="226" x="120.5" y="355.5"/>
  <path d="m344.5,88.5c63,27 63,27 62.5,26.5c-0.5,-0.5 -81.5,-38.5 -82,-39c-0.5,-0.5 -29.5,47.5 -30,47c-0.5,-0.5 100.5,-57.5 100,-58c-0.5,-0.5 -7.5,60.5 -8,60c-0.5,-0.5 -108.5,-62.5 -109,-63" fill="#ff00ff" id="svg_4" stroke="#000000" stroke-width="5"/>
  <polygon cx="461.5" cy="292.5" edge="52.93602" fill="#007f3f" id="svg_5" orient="x" points="506.5300682744991,292.5 475.4150563546844,335.32613986167803 425.0699095080661,318.96801004147375 425.0699095080661,266.03198995852625 475.4150563546844,249.67386013832194 506.5300682744991,292.5 " shape="regularPoly" sides="5" stroke="#000000" stroke-width="5" strokeWidth="5" strokecolor="#000000"/>
  <polygon cx="534.5" cy="172.5" edge="0" fill="#007f3f" id="svg_6" orient="x" shape="regularPoly" sides="5" strokeWidth="5" strokecolor="#000000"/>
 </g>
</svg>

